HIERARCHY
ROOT joint_Root
{
	OFFSET 0.0 0.0 0.0
	CHANNELS 6 Xposition Yposition Zposition Zrotation Xrotation Yrotation 
	JOINT Hips
	{
		OFFSET -0.726466 93.3139 -2.00062
		CHANNELS 6 Xposition Yposition Zposition Zrotation Xrotation Yrotation 
		JOINT Spine
		{
			OFFSET 15.7357 0.0 0.0
			CHANNELS 6 Xposition Yposition Zposition Zrotation Xrotation Yrotation 
			JOINT Chest
			{
				OFFSET 8.98455 -0.406207 0.0
				CHANNELS 6 Xposition Yposition Zposition Zrotation Xrotation Yrotation 
				JOINT Neck
				{
					OFFSET 16.3773 0.0 0.0
					CHANNELS 6 Xposition Yposition Zposition Zrotation Xrotation Yrotation 
					JOINT Head
					{
						OFFSET 6.45672 0.0 0.0
						CHANNELS 6 Xposition Yposition Zposition Zrotation Xrotation Yrotation 
						End Site
						{
							OFFSET 0.0 0.0 0.0
						}
					}
				}
				JOINT Shoulder_L
				{
					OFFSET 12.9942 -0.242716 4.98039
					CHANNELS 6 Xposition Yposition Zposition Zrotation Xrotation Yrotation 
					JOINT UpperArm_L
					{
						OFFSET 5.34809 0.0 0.0
						CHANNELS 6 Xposition Yposition Zposition Zrotation Xrotation Yrotation 
						JOINT LowerArm_L
						{
							OFFSET 24.3286 1.87007e-05 0.0
							CHANNELS 6 Xposition Yposition Zposition Zrotation Xrotation Yrotation 
							JOINT Hand_L
							{
								OFFSET 22.2916 0.0 0.0
								CHANNELS 6 Xposition Yposition Zposition Zrotation Xrotation Yrotation 
								End Site
								{
									OFFSET 0.0 0.0 0.0
								}
							}
						}
					}
				}
				JOINT Shoulder_R
				{
					OFFSET 12.9945 -0.242716 -4.98039
					CHANNELS 6 Xposition Yposition Zposition Zrotation Xrotation Yrotation 
					JOINT UpperArm_R
					{
						OFFSET -5.34813 0.0 0.0
						CHANNELS 6 Xposition Yposition Zposition Zrotation Xrotation Yrotation 
						JOINT LowerArm_R
						{
							OFFSET -24.3289 0.000322201 0.0
							CHANNELS 6 Xposition Yposition Zposition Zrotation Xrotation Yrotation 
							JOINT Hand_R
							{
								OFFSET -22.2915 -0.000108084 0.0
								CHANNELS 6 Xposition Yposition Zposition Zrotation Xrotation Yrotation 
								End Site
								{
									OFFSET 0.0 0.0 0.0
								}
							}
						}
					}
				}
			}
		}
		JOINT UpperLeg_L
		{
			OFFSET -2.19248 -6.46944 0.0
			CHANNELS 6 Xposition Yposition Zposition Zrotation Xrotation Yrotation 
			JOINT LowerLeg_L
			{
				OFFSET 39.0811 0.0 -1.23785e-05
				CHANNELS 6 Xposition Yposition Zposition Zrotation Xrotation Yrotation 
				JOINT Foot_L
				{
					OFFSET 40.9854 0.0 -1.26872e-05
					CHANNELS 6 Xposition Yposition Zposition Zrotation Xrotation Yrotation 
					JOINT Toes_L
					{
						OFFSET 11.7543 0.0 0.0
						CHANNELS 6 Xposition Yposition Zposition Zrotation Xrotation Yrotation 
						End Site
						{
							OFFSET 0.0 0.0 0.0
						}
					}
				}
			}
		}
		JOINT UpperLeg_R
		{
			OFFSET -2.19251 6.46944 0.0
			CHANNELS 6 Xposition Yposition Zposition Zrotation Xrotation Yrotation 
			JOINT LowerLeg_R
			{
				OFFSET -39.0811 -0.00228153 -0.0401928
				CHANNELS 6 Xposition Yposition Zposition Zrotation Xrotation Yrotation 
				JOINT Foot_R
				{
					OFFSET -40.9854 0.0 0.0
					CHANNELS 6 Xposition Yposition Zposition Zrotation Xrotation Yrotation 
					JOINT Toes_R
					{
						OFFSET -11.7543 0.0 0.0
						CHANNELS 6 Xposition Yposition Zposition Zrotation Xrotation Yrotation 
						End Site
						{
							OFFSET 0.0 0.0 0.0
						}
					}
				}
			}
		}
	}
}
MOTION
Frames:	4
Frame Time:	0.0333333
0.000000 0.000000 0.000000 0.000000 0.000000 -0.000000 108.193000 89.422900 183.814000 -87.192700 35.971200 -178.195000 15.735700 0.000005 -0.000001 104.924000 81.106100 -103.076000 8.984550 -0.406207 -0.000000 9.372180 4.581070 3.319940 16.377300 -0.000001 -0.000001 14.761800 3.768240 2.548990 6.456720 -0.000001 -0.000000 6.464670 3.978520 0.492124 12.994200 -0.242716 4.980390 -87.573800 -5.322810 -65.452000 5.348090 -0.000007 -0.000001 -73.762400 15.259100 3.852260 24.328600 0.000019 0.000005 3.000880 8.557970 -19.406200 22.291600 -0.000001 0.000005 5.811460 5.460820 -5.030710 12.994500 -0.242716 -4.980390 89.559800 1.133670 -68.776300 -5.348130 -0.000001 -0.000004 -47.388200 10.363300 -37.009600 -24.328900 0.000322 -0.000009 4.217240 6.251890 -34.109600 -22.291500 -0.000108 -0.000004 9.932250 5.501250 -6.583850 -2.192480 -6.469440 -0.000000 172.253000 -22.091600 -24.275500 39.081100 -0.000007 -0.000012 0.000951 -0.004282 12.533000 40.985400 -0.000006 -0.000013 11.502600 -4.237740 -55.777000 11.754300 -0.000000 0.000003 -0.004690 -0.058438 -18.954300 -2.192510 6.469440 -0.000001 171.447000 29.270900 -174.916000 -39.081100 -0.002282 -0.040193 0.090164 -0.154900 29.281800 -40.985400 0.000008 0.000006 -6.643040 -9.252340 -72.731100 -11.754300 -0.000006 -0.000006 -0.674920 -0.816797 -19.104900
0.000000 0.000000 0.000000 0.000000 0.000000 -0.000000 109.975000 88.861300 181.674000 -86.455300 35.813300 -178.867000 15.735700 0.000005 -0.000001 105.781000 81.117300 -104.119000 8.984550 -0.406207 -0.000000 9.285850 4.826440 2.929250 16.377300 -0.000001 -0.000001 14.687000 3.810010 2.635030 6.456720 -0.000001 -0.000000 6.314510 3.835610 0.438388 12.994200 -0.242716 4.980390 -87.614300 -5.174620 -65.206500 5.348090 -0.000007 -0.000001 -74.474200 15.466300 4.361690 24.328600 0.000019 0.000005 3.097960 9.239460 -18.627800 22.291600 -0.000001 0.000005 5.329730 5.453970 -4.782080 12.994500 -0.242716 -4.980390 89.529300 1.214550 -68.814600 -5.348130 -0.000001 -0.000004 -47.843000 11.088600 -37.776000 -24.328900 0.000322 -0.000009 4.307390 6.197280 -34.911000 -22.291500 -0.000108 -0.000004 10.142900 5.502220 -6.623080 -2.192480 -6.469440 -0.000000 172.565000 -20.615700 -25.868200 39.081100 -0.000007 -0.000012 0.026263 -0.113755 13.000700 40.985400 -0.000006 -0.000013 12.893500 -8.873020 -53.701600 11.754300 -0.000000 0.000003 -0.004593 -0.057481 -18.915300 -2.192510 6.469440 -0.000001 171.346000 28.110300 -174.066000 -39.081100 -0.002282 -0.040193 0.053432 -0.083822 30.882900 -40.985400 0.000008 0.000006 -8.008690 -9.267370 -71.954600 -11.754300 -0.000006 -0.000006 -2.179820 -2.459270 -21.445500
0.000000 0.000000 0.000000 0.000000 0.000000 -0.000000 111.727000 88.419400 179.043000 -86.496700 36.059000 -179.073000 15.735700 0.000005 -0.000001 106.269000 81.166300 -105.113000 8.984550 -0.406207 -0.000000 9.170040 4.936770 1.915510 16.377300 -0.000001 -0.000001 14.861800 4.035480 2.658720 6.456720 -0.000001 -0.000000 5.988050 3.787450 0.404711 12.994200 -0.242716 4.980390 -87.812900 -4.707240 -65.043600 5.348090 -0.000007 -0.000001 -74.828000 15.354500 4.838360 24.328600 0.000019 0.000005 3.241610 9.865460 -18.291800 22.291600 -0.000001 0.000005 4.680220 5.447500 -4.550160 12.994500 -0.242716 -4.980390 89.358200 1.686350 -69.159500 -5.348130 -0.000001 -0.000004 -47.997200 12.838100 -37.683500 -24.328900 0.000322 -0.000009 4.129670 5.698680 -36.029300 -22.291500 -0.000108 -0.000004 10.363100 5.506020 -6.777590 -2.192480 -6.469440 -0.000000 173.623000 -19.027700 -28.554100 39.081100 -0.000007 -0.000012 0.139995 -0.399057 19.331800 40.985400 -0.000006 -0.000013 12.046800 -9.875720 -49.392100 11.754300 -0.000000 0.000003 -0.005225 -0.063632 -19.166000 -2.192510 6.469440 -0.000001 170.223000 26.732000 -173.447000 -39.081100 -0.002282 -0.040193 -0.035320 0.059941 32.791000 -40.985400 0.000008 0.000006 -9.233910 -8.930480 -69.075700 -11.754300 -0.000006 -0.000006 -3.854690 -3.996490 -26.272200
0.000000 0.000000 0.000000 0.000000 0.000000 -0.000000 113.557000 88.058700 175.894000 -86.763300 36.516400 -178.917000 15.735700 0.000005 -0.000001 106.623000 81.217100 -106.098000 8.984550 -0.406207 -0.000000 9.068350 5.004470 0.654119 16.377300 -0.000001 -0.000001 14.924100 4.335120 2.602930 6.456720 -0.000001 -0.000000 5.808460 3.818600 0.345307 12.994200 -0.242716 4.980390 -88.081600 -4.086020 -64.822600 5.348090 -0.000007 -0.000001 -74.843900 15.587500 4.998840 24.328600 0.000019 0.000005 3.479680 10.728400 -18.089300 22.291600 -0.000001 0.000005 4.206600 5.448030 -4.569120 12.994500 -0.242716 -4.980390 89.126400 2.328200 -69.427100 -5.348130 -0.000001 -0.000004 -48.110600 15.587300 -36.773900 -24.328900 0.000322 -0.000009 4.049120 5.323990 -37.347900 -22.291500 -0.000108 -0.000004 10.113800 5.512390 -7.040980 -2.192480 -6.469440 -0.000000 174.840000 -17.003400 -29.859800 39.081100 -0.000007 -0.000012 0.126265 -0.262343 25.701400 40.985400 -0.000006 -0.000013 10.012900 -10.178700 -47.132000 11.754300 -0.000000 0.000003 -0.006007 -0.070911 -19.462700 -2.192510 6.469440 -0.000001 168.731000 24.746800 -172.898000 -39.081100 -0.002282 -0.040193 -0.035097 0.053589 35.614300 -40.985400 0.000008 0.000006 -10.361600 -8.719200 -66.371400 -11.754300 -0.000006 -0.000006 -1.583150 -1.575350 -27.633600
